<?xml version="1.0" encoding="UTF-8" standalone="no"?>
<!-- Created with Inkscape (http://www.inkscape.org/) -->
<svg xmlns:dc="http://purl.org/dc/elements/1.1/" xmlns:cc="http://creativecommons.org/ns#" xmlns:rdf="http://www.w3.org/1999/02/22-rdf-syntax-ns#" xmlns:svg="http://www.w3.org/2000/svg" xmlns="http://www.w3.org/2000/svg" xmlns:sodipodi="http://sodipodi.sourceforge.net/DTD/sodipodi-0.dtd" xmlns:inkscape="http://www.inkscape.org/namespaces/inkscape" id="svg4633" version="1.1" inkscape:version="0.48.1 " width="738" height="728.5875" xml:space="preserve" sodipodi:docname="sun-tribal-free-vector.pdf"><metadata id="metadata4639"><rdf:RDF><cc:Work rdf:about=""><dc:format>image/svg+xml</dc:format><dc:type rdf:resource="http://purl.org/dc/dcmitype/StillImage"/><dc:title/></cc:Work></rdf:RDF></metadata><defs id="defs4637"><clipPath clipPathUnits="userSpaceOnUse" id="clipPath4649"><path d="m 0,0 2460,0 0,2428.63 -2460,0 L 0,0 z" id="path4651"/></clipPath></defs><sodipodi:namedview pagecolor="#ffffff" bordercolor="#666666" borderopacity="1" objecttolerance="10" gridtolerance="10" guidetolerance="10" inkscape:pageopacity="0" inkscape:pageshadow="2" inkscape:window-width="640" inkscape:window-height="454" id="namedview4635" showgrid="false" inkscape:zoom="0.39940294" inkscape:cx="369" inkscape:cy="364.29376" inkscape:window-x="520" inkscape:window-y="153" inkscape:window-maximized="0" inkscape:current-layer="g4641"/><g id="g4641" inkscape:groupmode="layer" inkscape:label="sun-tribal-free-vector" transform="matrix(1.25,0,0,-1.25,0,728.5875)"><g id="g4643" transform="scale(0.24,0.24)"><g id="g4645"><g id="g4647" clip-path="url(#clipPath4649)"><path d="m 1231.95,795.949 c 231.99,0 420.73,188.739 420.73,420.721 0,231.99 -188.74,420.72 -420.73,420.72 -231.989,0 -420.727,-188.73 -420.727,-420.72 0,-231.982 188.738,-420.721 420.727,-420.721 M 1219.21,218.34 c -42.58,53.043 -12.09,83.676 17.38,113.308 10.68,10.727 21.68,21.786 30.18,34.356 l -103.72,48.773 c -13.79,-16.836 -69.69,-91.39 -42.86,-162.586 14.49,-38.453 45.13,-71.386 72.17,-100.441 33.5,-36.008 62.43,-67.1055 58.85,-102.2422 C 1249.48,32.5703 1240.06,16.2461 1222.57,0 c 19.07,5.625 45.14,17.875 61.01,44.3555 32.21,53.7539 0.4,93.3515 -62.97,172.2575 l -1.4,1.727 z m 601.28,1674.21 c -0.89,41.78 -1.83,84.99 65.6,94 l 2.21,0.3 c 100.3,13.42 150.64,20.15 164.4,81.28 6.81,30.23 -3.63,57.09 -13.58,74.27 1.48,-23.86 -2.98,-42.21 -13.41,-55.68 -21.65,-27.91 -64.04,-30.46 -113.14,-33.42 -39.62,-2.38 -84.51,-5.09 -121.52,-22.93 -68.54,-33.05 -79.5,-125.57 -81.14,-147.29 l 108.73,-36.22 c 2.53,14.96 2.19,30.55 1.85,45.69 m 125.38,-1373.28 -2.24,0.187 c -67.79,5.75 -68.94,48.961 -70.06,90.738 -0.39,15.141 -0.81,30.731 -4.04,45.555 l -106.87,-41.441 c 2.69,-21.618 18.1,-113.5 88.15,-143.2 37.83,-16.035 82.82,-16.566 122.49,-17.039 49.19,-0.578 91.66,-1.082 114.63,-27.925 11.06,-12.938 16.39,-31.008 16.08,-54.872 9.1,17.684 18.2,45.02 9.97,74.754 -16.69,60.395 -67.29,64.692 -168.11,73.243 M 218.34,1272.03 c 17.676,14.21 33.738,21.1 49.109,21.1 25.551,0 44.324,-18.68 64.203,-38.45 10.735,-10.69 21.786,-21.69 34.356,-30.18 l 48.777,103.71 c -13.656,11.2 -65.199,50.11 -122,50.11 -14.164,0 -27.828,-2.43 -40.594,-7.24 -38.457,-14.49 -71.39,-45.14 -100.441,-72.17 -34.102,-31.74 -63.5586,-59.14 -96.4531,-59.14 -19,0 -37.2305,9.51 -55.2969,28.94 5.61328,-19.08 17.875,-45.15 44.3594,-61.03 14.3047,-8.57 27.8359,-12.73 41.3711,-12.73 36.6175,0 74.1175,30.12 130.8825,75.7 l 1.727,1.38 z m 1209.65,389.5 c 58.85,-18.64 120.28,-67.79 144.74,-100.88 6.06,23.91 8.87,47.31 11.39,68.35 5.94,49.45 11.06,92.18 54.93,110.11 8.14,3.32 17.31,4.94 28.01,4.94 20.61,0 44.57,-6.16 69.95,-12.68 30.57,-7.87 65.24,-16.78 101.04,-16.78 33.59,0 63.58,7.79 91.68,23.8 109.36,62.35 109.75,146.54 92.25,204.3 -4.93,-38.66 -20.99,-73.81 -45.94,-99.39 -25.56,-26.18 -58.53,-40.6 -92.86,-40.6 -12.58,0 -25.29,1.93 -37.73,5.76 -18.81,5.76 -37.31,12.94 -56.91,20.54 -51.69,20.02 -110.27,42.73 -188.56,42.73 -15.71,0 -31.97,-0.92 -48.32,-2.74 -33.16,-3.67 -67.45,-25.48 -91.7,-58.34 -30.3,-41.07 -41.6,-93.89 -31.97,-149.12 m -993.232,258.52 c 2.383,-39.62 5.09,-84.51 22.937,-121.53 33.094,-68.64 125.575,-79.52 147.285,-81.13 l 36.227,108.73 c -10.805,1.81 -21.523,2.08 -30.062,2.08 -5.258,0 -10.477,-0.11 -15.633,-0.22 -5.086,-0.11 -10.094,-0.22 -14.996,-0.22 -35.52,0 -70.895,5.08 -79.02,65.81 l -0.293,2.23 c -13.406,100.27 -20.137,150.61 -81.265,164.38 -6.458,1.46 -13.094,2.19 -19.735,2.19 -22.047,0 -41.219,-8.03 -54.57,-15.77 3.023,0.19 5.945,0.29 8.758,0.29 72.73,0 76.441,-61.61 80.367,-126.84 M 1056.32,770.949 c -29.03,3.289 -94.75,37.883 -126.945,61.438 -30.289,-14.371 -67.074,-24.239 -80.059,-27.477 -1.738,-55.972 -20.777,-82.097 -59.707,-82.101 -11.238,0 -23.332,2.254 -34.062,4.875 l 27.117,-96.836 c 36.449,-5.442 60.961,-8.989 81.496,-8.989 l 0.004,0 c 20.043,0 36.543,3.278 58.828,11.696 39.113,14.765 145.278,76.418 133.328,137.394 M 505.941,1203.95 c 19.387,34.7 36.133,64.67 61.957,76.24 10.098,4.52 19.922,6.73 30.047,6.73 30.145,0 56.758,-19.89 87.571,-42.92 17.672,-13.2 37.41,-27.95 60.007,-40.39 -0.457,41.99 13.957,136.07 30.25,180.05 -9.55,12.93 -20.343,24.4 -32.058,34.34 -35.86,4.95 -65.406,20.32 -87.832,41.45 -10.129,1.76 -20.457,2.7 -30.938,2.7 -35.707,0 -68.808,-10.6 -90.804,-29.09 -80.02,-67.29 -108.93,-137.3 -134.43,-199.08 -8.02,-19.43 -15.602,-37.79 -24.391,-55.37 -22.09,-44.16 -65.863,-70.52 -117.117,-70.52 -35.582,0 -70.801,12.28 -101.621,35.05 22.711,-39.58 65.332,-85.05 141.305,-85.05 21.765,0 45.328,3.77 70.015,11.17 75.418,22.63 108.684,82.16 138.039,134.69 M 626.629,595.82 585.191,702.688 C 563.574,700 471.688,684.598 442,614.547 425.953,576.703 425.426,531.723 424.957,492.043 c -0.793,-67.227 -1.543,-130.727 -80.766,-130.727 -0.691,0 -1.382,0 -2.074,0.012 12.793,-6.594 30.641,-13.215 50.758,-13.215 8.156,0 16.246,1.094 24.039,3.25 60.395,16.703 64.688,67.309 73.246,168.141 l 0.192,2.223 c 5.746,67.777 48.949,68.929 90.73,70.043 15.141,0.402 30.723,0.816 45.547,4.05 m 98.945,184.582 c 15.801,44.703 58.219,51.887 107.328,60.203 21.258,3.59 44.934,7.594 68.946,15.036 -32.93,24.882 -79.524,84.898 -103.325,142.879 -9.132,1.136 -18.281,1.72 -27.25,1.72 -100.773,0 -175.562,-73.158 -179.652,-138.806 -6.492,-104.356 24.262,-173.586 51.391,-234.668 8.535,-19.207 16.601,-37.368 23.258,-55.848 14.218,-39.438 8.839,-80.441 -15.125,-115.441 -24.071,-35.161 -64.079,-59.215 -110.43,-67.387 15.797,-3.965 31.312,-5.961 46.351,-5.961 64.395,0 117.395,37.336 153.258,107.988 35.649,70.196 15.492,135.36 -2.289,192.84 -11.742,37.981 -21.89,70.777 -12.461,97.445 M 1266.77,2062.63 c -8.5,12.57 -19.5,23.62 -30.18,34.36 -29.47,29.64 -59.96,60.26 -17.38,113.31 l 1.42,1.75 c 63.35,78.89 95.16,118.49 62.95,172.24 -15.87,26.47 -41.94,38.73 -61.01,44.34 17.49,-16.24 26.91,-32.57 28.64,-49.5 3.58,-35.14 -25.35,-66.23 -58.85,-102.24 -27.04,-29.05 -57.68,-61.98 -72.17,-100.44 -26.87,-71.31 29.06,-145.76 42.86,-162.6 l 103.72,48.78 z m 15.07,-369.66 c -11.09,18.49 -23.36,35.14 -34.59,50.16 -29.81,39.9 -55.57,74.37 -36.18,117.61 11.57,25.82 41.55,42.57 76.25,61.97 52.53,29.34 112.05,62.61 134.69,138.02 36.17,120.56 -21.61,181.78 -74.12,211.54 27.9,-37.89 40.26,-82.9 33.44,-124.95 -6.79,-41.87 -31.18,-75.25 -68.67,-94 -17.58,-8.79 -35.93,-16.37 -55.37,-24.38 -61.77,-25.51 -131.8,-54.42 -199.08,-134.45 -23,-27.35 -33.79,-66.94 -28.87,-105.92 1.01,-8 2.79,-16.89 5.71,-26.34 30.77,-24.57 56.84,-54.95 60.96,-86.27 0.04,-0.04 0.09,-0.08 0.14,-0.12 43.08,12.77 88.63,19.73 135.8,19.73 16.84,0 33.5,-0.89 49.89,-2.6 m 513.42,-143.95 c 14.51,44.84 10.38,67.69 -4.06,140.29 l -98.04,22.41 c 7.33,-24.72 10.84,-49.27 -1.79,-67.93 -11.44,-16.91 -34.63,-26.58 -70.81,-29.46 -2.62,-13.14 -10.7,-50.4 -23.62,-81.37 13.77,-17.66 27,-38.13 38,-58.03 14.32,-22.28 26.94,-45.76 37.46,-70.35 54.09,3.03 107.33,96.38 122.86,144.44 M 1096.62,757.363 c -36.23,-31.957 -58.92,-73.023 -64.55,-117.715 -5.11,-40.523 4.66,-79.953 26.14,-105.507 67.28,-80.024 137.31,-108.934 199.09,-134.438 19.43,-8.019 37.78,-15.59 55.36,-24.383 37.49,-18.75 61.89,-52.132 68.67,-94.011 6.82,-42.047 -5.54,-87.055 -33.44,-124.93 52.51,29.762 110.29,90.973 74.12,211.523 -22.64,75.422 -82.16,108.68 -134.69,138.036 -34.7,19.386 -64.68,36.14 -76.25,61.96 -19.39,43.254 6.37,77.711 36.18,117.61 12.26,16.41 25.83,34.652 37.66,55.254 -17.39,-1.918 -35.06,-2.992 -52.96,-2.992 -47,0 -92.38,6.929 -135.33,19.593 m 372.11,43.293 c -1.43,-47.547 12.69,-91.609 40.78,-126.066 25.81,-31.652 61.11,-51.785 94.42,-53.856 9.42,-0.589 18.84,-0.882 28,-0.882 88.96,0 151.5,27.777 206.66,52.277 19.21,8.543 37.35,16.59 55.85,23.258 14.19,5.129 28.79,7.718 43.35,7.718 68.85,0 125.84,-56.503 139.46,-133.277 14.69,58.547 10.24,142.621 -102.01,199.613 -25.98,13.184 -52.99,19.606 -82.57,19.606 -39.53,0 -77.12,-11.641 -110.28,-21.899 -26.87,-8.308 -52.26,-16.152 -74.01,-16.152 -8.72,0 -16.4,1.211 -23.45,3.703 -44.68,15.785 -51.86,58.207 -60.18,107.321 -3.3,19.472 -7.05,41.011 -13.36,62.957 -38.76,-50.297 -87.26,-92.664 -142.66,-124.321 m 935.99,439.114 -0.01,0 c -32.89,0 -62.35,27.4 -96.45,59.14 -29.05,27.03 -61.98,57.68 -100.44,72.17 -12.77,4.81 -26.43,7.24 -40.59,7.24 -56.79,0 -108.35,-38.91 -122.01,-50.11 L 2094,1224.5 c 12.58,8.49 23.63,19.49 34.36,30.18 19.89,19.77 38.66,38.45 64.2,38.45 15.37,0 31.44,-6.89 49.11,-21.1 l 1.72,-1.37 c 56.77,-45.59 94.27,-75.71 130.9,-75.71 13.53,0 27.07,4.16 41.37,12.73 26.48,15.88 38.73,41.95 44.35,61.03 -18.06,-19.43 -36.28,-28.94 -55.29,-28.94 m -320.02,-61.16 c -8.8,17.58 -16.38,35.94 -24.4,55.37 -25.5,61.77 -54.41,131.79 -134.43,199.08 -21.67,18.21 -56.23,29.09 -92.46,29.09 -29.14,0 -57.09,-6.6 -82.39,-18.9 -18.13,-22.55 -39.38,-41.38 -62.29,-48.41 -2.85,-3.34 -5.62,-6.78 -8.3,-10.34 6.92,-18.42 12.66,-37.39 17.3,-56.8 0.18,-0.77 0.35,-1.55 0.53,-2.33 1.26,-5.4 2.49,-10.83 3.57,-16.31 8.27,-40.38 12.64,-81.66 12.53,-105.52 22.65,12.45 42.43,27.23 60.13,40.46 30.82,23.04 57.44,42.92 87.58,42.92 10.13,0 19.94,-2.21 30.04,-6.73 25.82,-11.57 42.58,-41.55 61.96,-76.25 29.36,-52.52 62.62,-112.05 138.04,-134.68 24.7,-7.4 48.25,-11.17 70.02,-11.17 75.97,0 118.6,45.47 141.3,85.05 -30.82,-22.77 -66.03,-35.05 -101.63,-35.05 -51.24,0 -95.03,26.36 -117.1,70.52 M 939.043,1802.75 c -19.59,6.33 -34.957,9.03 -51.379,9.03 -22.344,0 -47.726,-4.91 -88.918,-13.1 l -22.406,-98.04 c 11.894,3.53 25.383,6.62 37.723,6.62 36.355,0 55.382,-25.21 59.667,-79.22 12.809,-2.56 48.516,-10.31 78.993,-22.66 39.617,28.55 83.737,51.19 131.097,66.63 -5.25,56.33 -100.816,116.51 -144.777,130.74 M 1283.76,670.992 c 24.2,-27.047 34.33,-50.035 30.95,-70.176 -3.73,-22.226 -23.21,-37.574 -45.57,-50.421 l 86.43,-51.407 c 60.54,42.602 79.3,56.305 99.73,98.774 9.65,20.054 19.52,63.953 20.36,107.164 -12.81,26.914 -19.52,57.015 -19.58,88.699 -41.2,-21.918 -85.95,-37.961 -133.16,-47.082 -11.99,-31.438 -31.97,-64.184 -39.16,-75.551 m 376.68,207.442 c 36.27,-1.141 59.9,-9.657 72.17,-26.012 13.51,-18.02 11.19,-42.715 5.06,-67.758 l 96.84,27.109 c 10.92,73.215 13.93,96.239 -2.72,140.336 -14.37,38.047 -80.86,124.981 -138.75,135.471 -13.17,-46.95 -33.3,-90.967 -59.25,-130.932 13.92,-29.929 23.47,-65.496 26.65,-78.214 m -244.69,780.616 c -10.34,58.75 1.68,115.1 34.11,159.04 2.31,3.12 4.72,6.1 7.18,9.03 -0.59,1.3 -1.17,2.58 -1.74,3.76 -20.43,42.46 -39.19,56.16 -99.73,98.77 l -86.43,-51.41 c 22.36,-12.85 41.84,-28.19 45.57,-50.41 3.38,-20.15 -6.75,-43.14 -30.95,-70.19 6.81,-10.75 25.05,-40.66 37.16,-70.49 31.35,-5.91 61.63,-14.88 90.51,-26.6 1.44,-0.5 2.93,-1 4.32,-1.5 m 389.27,-640.35 c 23.44,4.54 44.22,11 57.23,17.26 42.46,20.43 56.17,39.2 98.77,99.73 l -51.41,86.44 c -14.41,-25.06 -31.86,-46.21 -58.11,-46.21 -18.52,0 -39.3,10.62 -63.44,32.44 -10.55,-3.15 -44.01,-13.33 -75.08,-24.54 -1.46,-4.45 -2.94,-9.11 -4.42,-13.74 -2.35,-24.07 -6.47,-47.62 -12.24,-70.51 38.64,-7.71 79.38,-44.22 108.7,-80.87 M 746.523,1168.35 c -31.425,11.99 -64.164,31.97 -75.531,39.16 -23.734,-21.25 -44.191,-31.59 -62.469,-31.59 -26.257,0 -43.703,21.15 -58.125,46.21 l -51.402,-86.44 c 43.266,-61.19 59.582,-75.83 99.313,-100.01 20.523,-12.5 64.589,-25.15 109.101,-25.15 l 0.008,0 c 22.418,0 59.984,3.54 81.434,24.7 -5.77,14.03 -10.907,28.39 -15.336,43.06 -9.274,22.08 -18.293,52.14 -26.993,90.06 m 59.895,267.6 c -0.688,-1.32 -1.367,-2.63 -2.035,-3.95 -12.156,-2.1 -24.074,-3.16 -35.457,-3.16 l -0.016,0 c -88.887,0 -142.668,65.55 -149.844,130.3 -11.527,103.92 15.852,174.56 40.004,236.88 7.598,19.6 14.77,38.11 20.532,56.91 12.105,39.47 5.121,79.68 -19.672,113.22 -25.567,34.58 -67.242,57.3 -114.571,63.33 18.383,5.56 36.457,8.37 54.012,8.37 61.656,0 112.215,-33.85 150.293,-100.64 38.996,-68.41 22.016,-134.46 7.024,-192.74 -9.895,-38.5 -18.45,-71.75 -7.739,-97.95 17.864,-43.68 58.418,-48.31 105.367,-53.65 20.594,-2.35 43.489,-4.96 67.395,-10.99 -35.438,-25.39 -95.582,-91.73 -115.293,-145.93" style="fill:#100f0d;fill-opacity:1;fill-rule:nonzero;stroke:none" id="path4653"/></g></g></g></g></svg>